<svg xmlns="http://www.w3.org/2000/svg" version="1.1" xmlns:xlink="http://www.w3.org/1999/xlink" xmlns:svgjs="http://svgjs.com/svgjs" width="1440" height="560" preserveAspectRatio="none" viewBox="0 0 1440 560"><g mask="url(&quot;#SvgjsMask1605&quot;)" fill="none"><rect width="1440" height="560" x="0" y="0" fill="url(#SvgjsLinearGradient1606)"></rect><path d="M-83.5 340.05L-83.5 340.05" stroke="rgba(167, 4, 155, 1)" stroke-width="1.5"></path><path d="M-83.5 340.05L-47.16 511.23" stroke="rgba(167, 4, 155, 1)" stroke-width="1.5"></path><path d="M-83.5 340.05L40.58 540.13" stroke="rgba(167, 4, 155, 1)" stroke-width="1.5"></path><path d="M-83.5 340.05L213.77 378.8" stroke="rgba(167, 4, 155, 1)" stroke-width="1.5"></path><path d="M-83.5 340.05L210.53 491.35" stroke="rgba(167, 4, 155, 1)" stroke-width="1.5"></path><path d="M-47.16 511.23L-47.16 511.23" stroke="rgba(167, 4, 155, 1)" stroke-width="1.5"></path><path d="M-47.16 511.23L40.58 540.13" stroke="rgba(167, 4, 155, 1)" stroke-width="1.5"></path><path d="M-84.27 688.25L-84.27 688.25" stroke="rgba(167, 4, 155, 1)" stroke-width="1.5"></path><path d="M-84.27 688.25L-47.16 511.23" stroke="rgba(167, 4, 155, 1)" stroke-width="1.5"></path><path d="M-84.27 688.25L106.16 662.58" stroke="rgba(167, 4, 155, 1)" stroke-width="1.5"></path><path d="M-84.27 688.25L40.58 540.13" stroke="rgba(167, 4, 155, 1)" stroke-width="1.5"></path><path d="M-84.27 688.25L252.28 709.44" stroke="rgba(167, 4, 155, 1)" stroke-width="1.5"></path><path d="M-84.27 688.25L-83.5 340.05" stroke="rgba(167, 4, 155, 1)" stroke-width="1.5"></path><path d="M-84.27 688.25L210.53 491.35" stroke="rgba(167, 4, 155, 1)" stroke-width="1.5"></path><path d="M40.58 540.13L40.58 540.13" stroke="rgba(167, 4, 155, 1)" stroke-width="1.5"></path><path d="M40.58 540.13L106.16 662.58" stroke="rgba(167, 4, 155, 1)" stroke-width="1.5"></path><path d="M40.58 540.13L210.53 491.35" stroke="rgba(167, 4, 155, 1)" stroke-width="1.5"></path><path d="M106.16 662.58L106.16 662.58" stroke="rgba(167, 4, 155, 1)" stroke-width="1.5"></path><path d="M106.16 662.58L252.28 709.44" stroke="rgba(167, 4, 155, 1)" stroke-width="1.5"></path><path d="M213.77 378.8L213.77 378.8" stroke="rgba(167, 4, 155, 1)" stroke-width="1.5"></path><path d="M213.77 378.8L210.53 491.35" stroke="rgba(167, 4, 155, 1)" stroke-width="1.5"></path><path d="M213.77 378.8L377.82 390.4" stroke="rgba(167, 4, 155, 1)" stroke-width="1.5"></path><path d="M213.77 378.8L40.58 540.13" stroke="rgba(167, 4, 155, 1)" stroke-width="1.5"></path><path d="M210.53 491.35L210.53 491.35" stroke="rgba(167, 4, 155, 1)" stroke-width="1.5"></path><path d="M210.53 491.35L377.82 390.4" stroke="rgba(167, 4, 155, 1)" stroke-width="1.5"></path><path d="M210.53 491.35L106.16 662.58" stroke="rgba(167, 4, 155, 1)" stroke-width="1.5"></path><path d="M210.53 491.35L252.28 709.44" stroke="rgba(167, 4, 155, 1)" stroke-width="1.5"></path><path d="M252.28 709.44L252.28 709.44" stroke="rgba(167, 4, 155, 1)" stroke-width="1.5"></path><path d="M252.28 709.44L379.9 646.17" stroke="rgba(167, 4, 155, 1)" stroke-width="1.5"></path><path d="M377.82 390.4L377.82 390.4" stroke="rgba(167, 4, 155, 1)" stroke-width="1.5"></path><path d="M377.82 390.4L523.44 392.01" stroke="rgba(167, 4, 155, 1)" stroke-width="1.5"></path><path d="M379.9 646.17L379.9 646.17" stroke="rgba(167, 4, 155, 1)" stroke-width="1.5"></path><path d="M379.9 646.17L521.52 674.98" stroke="rgba(167, 4, 155, 1)" stroke-width="1.5"></path><path d="M379.9 646.17L210.53 491.35" stroke="rgba(167, 4, 155, 1)" stroke-width="1.5"></path><path d="M379.9 646.17L560.14 488.42" stroke="rgba(167, 4, 155, 1)" stroke-width="1.5"></path><path d="M379.9 646.17L377.82 390.4" stroke="rgba(167, 4, 155, 1)" stroke-width="1.5"></path><path d="M523.44 392.01L523.44 392.01" stroke="rgba(167, 4, 155, 1)" stroke-width="1.5"></path><path d="M523.44 392.01L560.14 488.42" stroke="rgba(167, 4, 155, 1)" stroke-width="1.5"></path><path d="M560.14 488.42L560.14 488.42" stroke="rgba(167, 4, 155, 1)" stroke-width="1.5"></path><path d="M560.14 488.42L648.42 521.57" stroke="rgba(167, 4, 155, 1)" stroke-width="1.5"></path><path d="M560.14 488.42L640.75 344.13" stroke="rgba(167, 4, 155, 1)" stroke-width="1.5"></path><path d="M521.52 674.98L521.52 674.98" stroke="rgba(167, 4, 155, 1)" stroke-width="1.5"></path><path d="M521.52 674.98L705.6 649.22" stroke="rgba(167, 4, 155, 1)" stroke-width="1.5"></path><path d="M521.52 674.98L560.14 488.42" stroke="rgba(167, 4, 155, 1)" stroke-width="1.5"></path><path d="M521.52 674.98L648.42 521.57" stroke="rgba(167, 4, 155, 1)" stroke-width="1.5"></path><path d="M521.52 674.98L252.28 709.44" stroke="rgba(167, 4, 155, 1)" stroke-width="1.5"></path><path d="M692.79 261.42L692.79 261.42" stroke="rgba(167, 4, 155, 1)" stroke-width="1.5"></path><path d="M692.79 261.42L640.75 344.13" stroke="rgba(167, 4, 155, 1)" stroke-width="1.5"></path><path d="M692.79 261.42L818.37 249.56" stroke="rgba(167, 4, 155, 1)" stroke-width="1.5"></path><path d="M692.79 261.42L523.44 392.01" stroke="rgba(167, 4, 155, 1)" stroke-width="1.5"></path><path d="M692.79 261.42L847.75 72.18" stroke="rgba(167, 4, 155, 1)" stroke-width="1.5"></path><path d="M640.75 344.13L640.75 344.13" stroke="rgba(167, 4, 155, 1)" stroke-width="1.5"></path><path d="M640.75 344.13L523.44 392.01" stroke="rgba(167, 4, 155, 1)" stroke-width="1.5"></path><path d="M640.75 344.13L648.42 521.57" stroke="rgba(167, 4, 155, 1)" stroke-width="1.5"></path><path d="M640.75 344.13L818.37 249.56" stroke="rgba(167, 4, 155, 1)" stroke-width="1.5"></path><path d="M648.42 521.57L648.42 521.57" stroke="rgba(167, 4, 155, 1)" stroke-width="1.5"></path><path d="M648.42 521.57L705.6 649.22" stroke="rgba(167, 4, 155, 1)" stroke-width="1.5"></path><path d="M648.42 521.57L816.15 503.32" stroke="rgba(167, 4, 155, 1)" stroke-width="1.5"></path><path d="M705.6 649.22L705.6 649.22" stroke="rgba(167, 4, 155, 1)" stroke-width="1.5"></path><path d="M705.6 649.22L801.02 644.87" stroke="rgba(167, 4, 155, 1)" stroke-width="1.5"></path><path d="M705.6 649.22L816.15 503.32" stroke="rgba(167, 4, 155, 1)" stroke-width="1.5"></path><path d="M705.6 649.22L560.14 488.42" stroke="rgba(167, 4, 155, 1)" stroke-width="1.5"></path><path d="M847.75 72.18L847.75 72.18" stroke="rgba(167, 4, 155, 1)" stroke-width="1.5"></path><path d="M847.75 72.18L952.18 63.83" stroke="rgba(167, 4, 155, 1)" stroke-width="1.5"></path><path d="M847.75 72.18L818.37 249.56" stroke="rgba(167, 4, 155, 1)" stroke-width="1.5"></path><path d="M847.75 72.18L969.75 -93.98" stroke="rgba(167, 4, 155, 1)" stroke-width="1.5"></path><path d="M847.75 72.18L1000.87 218.09" stroke="rgba(167, 4, 155, 1)" stroke-width="1.5"></path><path d="M818.37 249.56L818.37 249.56" stroke="rgba(167, 4, 155, 1)" stroke-width="1.5"></path><path d="M818.37 249.56L961.43 340.48" stroke="rgba(167, 4, 155, 1)" stroke-width="1.5"></path><path d="M816.15 503.32L816.15 503.32" stroke="rgba(167, 4, 155, 1)" stroke-width="1.5"></path><path d="M816.15 503.32L801.02 644.87" stroke="rgba(167, 4, 155, 1)" stroke-width="1.5"></path><path d="M801.02 644.87L801.02 644.87" stroke="rgba(167, 4, 155, 1)" stroke-width="1.5"></path><path d="M801.02 644.87L648.42 521.57" stroke="rgba(167, 4, 155, 1)" stroke-width="1.5"></path><path d="M801.02 644.87L1006.92 669.33" stroke="rgba(167, 4, 155, 1)" stroke-width="1.5"></path><path d="M801.02 644.87L987.5 511.8" stroke="rgba(167, 4, 155, 1)" stroke-width="1.5"></path><path d="M969.75 -93.98L969.75 -93.98" stroke="rgba(167, 4, 155, 1)" stroke-width="1.5"></path><path d="M969.75 -93.98L952.18 63.83" stroke="rgba(167, 4, 155, 1)" stroke-width="1.5"></path><path d="M969.75 -93.98L1158.17 -93.96" stroke="rgba(167, 4, 155, 1)" stroke-width="1.5"></path><path d="M952.18 63.83L952.18 63.83" stroke="rgba(167, 4, 155, 1)" stroke-width="1.5"></path><path d="M952.18 63.83L1000.87 218.09" stroke="rgba(167, 4, 155, 1)" stroke-width="1.5"></path><path d="M952.18 63.83L1148.24 39.85" stroke="rgba(167, 4, 155, 1)" stroke-width="1.5"></path><path d="M1000.87 218.09L1000.87 218.09" stroke="rgba(167, 4, 155, 1)" stroke-width="1.5"></path><path d="M1000.87 218.09L1108.84 227.05" stroke="rgba(167, 4, 155, 1)" stroke-width="1.5"></path><path d="M1000.87 218.09L961.43 340.48" stroke="rgba(167, 4, 155, 1)" stroke-width="1.5"></path><path d="M1000.87 218.09L818.37 249.56" stroke="rgba(167, 4, 155, 1)" stroke-width="1.5"></path><path d="M1000.87 218.09L1131.69 358.35" stroke="rgba(167, 4, 155, 1)" stroke-width="1.5"></path><path d="M961.43 340.48L961.43 340.48" stroke="rgba(167, 4, 155, 1)" stroke-width="1.5"></path><path d="M961.43 340.48L1131.69 358.35" stroke="rgba(167, 4, 155, 1)" stroke-width="1.5"></path><path d="M961.43 340.48L987.5 511.8" stroke="rgba(167, 4, 155, 1)" stroke-width="1.5"></path><path d="M961.43 340.48L1108.84 227.05" stroke="rgba(167, 4, 155, 1)" stroke-width="1.5"></path><path d="M987.5 511.8L987.5 511.8" stroke="rgba(167, 4, 155, 1)" stroke-width="1.5"></path><path d="M987.5 511.8L1006.92 669.33" stroke="rgba(167, 4, 155, 1)" stroke-width="1.5"></path><path d="M987.5 511.8L1144.53 561.51" stroke="rgba(167, 4, 155, 1)" stroke-width="1.5"></path><path d="M987.5 511.8L816.15 503.32" stroke="rgba(167, 4, 155, 1)" stroke-width="1.5"></path><path d="M987.5 511.8L1114.84 648.49" stroke="rgba(167, 4, 155, 1)" stroke-width="1.5"></path><path d="M987.5 511.8L1131.69 358.35" stroke="rgba(167, 4, 155, 1)" stroke-width="1.5"></path><path d="M1006.92 669.33L1006.92 669.33" stroke="rgba(167, 4, 155, 1)" stroke-width="1.5"></path><path d="M1006.92 669.33L1114.84 648.49" stroke="rgba(167, 4, 155, 1)" stroke-width="1.5"></path><path d="M1006.92 669.33L1144.53 561.51" stroke="rgba(167, 4, 155, 1)" stroke-width="1.5"></path><path d="M1158.17 -93.96L1158.17 -93.96" stroke="rgba(167, 4, 155, 1)" stroke-width="1.5"></path><path d="M1158.17 -93.96L1258.19 -86.28" stroke="rgba(167, 4, 155, 1)" stroke-width="1.5"></path><path d="M1158.17 -93.96L1148.24 39.85" stroke="rgba(167, 4, 155, 1)" stroke-width="1.5"></path><path d="M1148.24 39.85L1148.24 39.85" stroke="rgba(167, 4, 155, 1)" stroke-width="1.5"></path><path d="M1148.24 39.85L1297.32 77.62" stroke="rgba(167, 4, 155, 1)" stroke-width="1.5"></path><path d="M1148.24 39.85L1258.19 -86.28" stroke="rgba(167, 4, 155, 1)" stroke-width="1.5"></path><path d="M1148.24 39.85L1108.84 227.05" stroke="rgba(167, 4, 155, 1)" stroke-width="1.5"></path><path d="M1148.24 39.85L969.75 -93.98" stroke="rgba(167, 4, 155, 1)" stroke-width="1.5"></path><path d="M1108.84 227.05L1108.84 227.05" stroke="rgba(167, 4, 155, 1)" stroke-width="1.5"></path><path d="M1108.84 227.05L1131.69 358.35" stroke="rgba(167, 4, 155, 1)" stroke-width="1.5"></path><path d="M1108.84 227.05L1251.02 240.48" stroke="rgba(167, 4, 155, 1)" stroke-width="1.5"></path><path d="M1108.84 227.05L952.18 63.83" stroke="rgba(167, 4, 155, 1)" stroke-width="1.5"></path><path d="M1131.69 358.35L1131.69 358.35" stroke="rgba(167, 4, 155, 1)" stroke-width="1.5"></path><path d="M1131.69 358.35L1293.97 373.05" stroke="rgba(167, 4, 155, 1)" stroke-width="1.5"></path><path d="M1131.69 358.35L1251.02 240.48" stroke="rgba(167, 4, 155, 1)" stroke-width="1.5"></path><path d="M1144.53 561.51L1144.53 561.51" stroke="rgba(167, 4, 155, 1)" stroke-width="1.5"></path><path d="M1144.53 561.51L1114.84 648.49" stroke="rgba(167, 4, 155, 1)" stroke-width="1.5"></path><path d="M1144.53 561.51L1253.44 525.49" stroke="rgba(167, 4, 155, 1)" stroke-width="1.5"></path><path d="M1144.53 561.51L1131.69 358.35" stroke="rgba(167, 4, 155, 1)" stroke-width="1.5"></path><path d="M1114.84 648.49L1114.84 648.49" stroke="rgba(167, 4, 155, 1)" stroke-width="1.5"></path><path d="M1114.84 648.49L1253.44 525.49" stroke="rgba(167, 4, 155, 1)" stroke-width="1.5"></path><path d="M1258.19 -86.28L1258.19 -86.28" stroke="rgba(167, 4, 155, 1)" stroke-width="1.5"></path><path d="M1258.19 -86.28L1389.57 -82.19" stroke="rgba(167, 4, 155, 1)" stroke-width="1.5"></path><path d="M1258.19 -86.28L1297.32 77.62" stroke="rgba(167, 4, 155, 1)" stroke-width="1.5"></path><path d="M1297.32 77.62L1297.32 77.62" stroke="rgba(167, 4, 155, 1)" stroke-width="1.5"></path><path d="M1297.32 77.62L1436.56 71.75" stroke="rgba(167, 4, 155, 1)" stroke-width="1.5"></path><path d="M1297.32 77.62L1251.02 240.48" stroke="rgba(167, 4, 155, 1)" stroke-width="1.5"></path><path d="M1251.02 240.48L1251.02 240.48" stroke="rgba(167, 4, 155, 1)" stroke-width="1.5"></path><path d="M1251.02 240.48L1293.97 373.05" stroke="rgba(167, 4, 155, 1)" stroke-width="1.5"></path><path d="M1293.97 373.05L1293.97 373.05" stroke="rgba(167, 4, 155, 1)" stroke-width="1.5"></path><path d="M1293.97 373.05L1387.51 381.26" stroke="rgba(167, 4, 155, 1)" stroke-width="1.5"></path><path d="M1293.97 373.05L1253.44 525.49" stroke="rgba(167, 4, 155, 1)" stroke-width="1.5"></path><path d="M1253.44 525.49L1253.44 525.49" stroke="rgba(167, 4, 155, 1)" stroke-width="1.5"></path><path d="M1253.44 525.49L1407.47 558.55" stroke="rgba(167, 4, 155, 1)" stroke-width="1.5"></path><path d="M1253.44 525.49L1309.83 693.24" stroke="rgba(167, 4, 155, 1)" stroke-width="1.5"></path><path d="M1253.44 525.49L1387.51 381.26" stroke="rgba(167, 4, 155, 1)" stroke-width="1.5"></path><path d="M1309.83 693.24L1309.83 693.24" stroke="rgba(167, 4, 155, 1)" stroke-width="1.5"></path><path d="M1309.83 693.24L1407.47 558.55" stroke="rgba(167, 4, 155, 1)" stroke-width="1.5"></path><path d="M1309.83 693.24L1114.84 648.49" stroke="rgba(167, 4, 155, 1)" stroke-width="1.5"></path><path d="M1309.83 693.24L1144.53 561.51" stroke="rgba(167, 4, 155, 1)" stroke-width="1.5"></path><path d="M1309.83 693.24L1586.88 637.83" stroke="rgba(167, 4, 155, 1)" stroke-width="1.5"></path><path d="M1389.57 -82.19L1389.57 -82.19" stroke="rgba(167, 4, 155, 1)" stroke-width="1.5"></path><path d="M1389.57 -82.19L1436.56 71.75" stroke="rgba(167, 4, 155, 1)" stroke-width="1.5"></path><path d="M1436.56 71.75L1436.56 71.75" stroke="rgba(167, 4, 155, 1)" stroke-width="1.5"></path><path d="M1436.56 71.75L1601.9 102.23" stroke="rgba(167, 4, 155, 1)" stroke-width="1.5"></path><path d="M1436.56 71.75L1571.49 -79.03" stroke="rgba(167, 4, 155, 1)" stroke-width="1.5"></path><path d="M1387.51 381.26L1387.51 381.26" stroke="rgba(167, 4, 155, 1)" stroke-width="1.5"></path><path d="M1387.51 381.26L1407.47 558.55" stroke="rgba(167, 4, 155, 1)" stroke-width="1.5"></path><path d="M1387.51 381.26L1251.02 240.48" stroke="rgba(167, 4, 155, 1)" stroke-width="1.5"></path><path d="M1387.51 381.26L1555.91 499.79" stroke="rgba(167, 4, 155, 1)" stroke-width="1.5"></path><path d="M1387.51 381.26L1604.12 410.18" stroke="rgba(167, 4, 155, 1)" stroke-width="1.5"></path><path d="M1407.47 558.55L1407.47 558.55" stroke="rgba(167, 4, 155, 1)" stroke-width="1.5"></path><path d="M1407.47 558.55L1555.91 499.79" stroke="rgba(167, 4, 155, 1)" stroke-width="1.5"></path><path d="M1571.49 -79.03L1571.49 -79.03" stroke="rgba(167, 4, 155, 1)" stroke-width="1.5"></path><path d="M1571.49 -79.03L1389.57 -82.19" stroke="rgba(167, 4, 155, 1)" stroke-width="1.5"></path><path d="M1571.49 -79.03L1601.9 102.23" stroke="rgba(167, 4, 155, 1)" stroke-width="1.5"></path><path d="M1601.9 102.23L1601.9 102.23" stroke="rgba(167, 4, 155, 1)" stroke-width="1.5"></path><path d="M1601.9 102.23L1562.48 232.79" stroke="rgba(167, 4, 155, 1)" stroke-width="1.5"></path><path d="M1601.9 102.23L1389.57 -82.19" stroke="rgba(167, 4, 155, 1)" stroke-width="1.5"></path><path d="M1562.48 232.79L1562.48 232.79" stroke="rgba(167, 4, 155, 1)" stroke-width="1.5"></path><path d="M1562.48 232.79L1604.12 410.18" stroke="rgba(167, 4, 155, 1)" stroke-width="1.5"></path><path d="M1562.48 232.79L1436.56 71.75" stroke="rgba(167, 4, 155, 1)" stroke-width="1.5"></path><path d="M1562.48 232.79L1387.51 381.26" stroke="rgba(167, 4, 155, 1)" stroke-width="1.5"></path><path d="M1562.48 232.79L1555.91 499.79" stroke="rgba(167, 4, 155, 1)" stroke-width="1.5"></path><path d="M1562.48 232.79L1293.97 373.05" stroke="rgba(167, 4, 155, 1)" stroke-width="1.5"></path><path d="M1604.12 410.18L1604.12 410.18" stroke="rgba(167, 4, 155, 1)" stroke-width="1.5"></path><path d="M1604.12 410.18L1555.91 499.79" stroke="rgba(167, 4, 155, 1)" stroke-width="1.5"></path><path d="M1604.12 410.18L1586.88 637.83" stroke="rgba(167, 4, 155, 1)" stroke-width="1.5"></path><path d="M1604.12 410.18L1407.47 558.55" stroke="rgba(167, 4, 155, 1)" stroke-width="1.5"></path><path d="M1604.12 410.18L1601.9 102.23" stroke="rgba(167, 4, 155, 1)" stroke-width="1.5"></path><path d="M1555.91 499.79L1555.91 499.79" stroke="rgba(167, 4, 155, 1)" stroke-width="1.5"></path><path d="M1555.91 499.79L1586.88 637.83" stroke="rgba(167, 4, 155, 1)" stroke-width="1.5"></path><path d="M1586.88 637.83L1586.88 637.83" stroke="rgba(167, 4, 155, 1)" stroke-width="1.5"></path><path d="M1586.88 637.83L1407.47 558.55" stroke="rgba(167, 4, 155, 1)" stroke-width="1.5"></path><path d="M1586.88 637.83L1387.51 381.26" stroke="rgba(167, 4, 155, 1)" stroke-width="1.5"></path><circle r="5" cx="-83.5" cy="340.05" fill="rgba(167, 4, 155, 1)"></circle><circle r="5" cx="-47.16" cy="511.23" fill="rgba(167, 4, 155, 1)"></circle><circle r="5" cx="-84.27" cy="688.25" fill="rgba(167, 4, 155, 1)"></circle><circle r="5" cx="40.58" cy="540.13" fill="rgba(167, 4, 155, 1)"></circle><circle r="5" cx="106.16" cy="662.58" fill="rgba(167, 4, 155, 1)"></circle><circle r="5" cx="213.77" cy="378.8" fill="rgba(167, 4, 155, 1)"></circle><circle r="5" cx="210.53" cy="491.35" fill="rgba(167, 4, 155, 1)"></circle><circle r="5" cx="252.28" cy="709.44" fill="rgba(167, 4, 155, 1)"></circle><circle r="5" cx="377.82" cy="390.4" fill="rgba(167, 4, 155, 1)"></circle><circle r="5" cx="379.9" cy="646.17" fill="rgba(167, 4, 155, 1)"></circle><circle r="5" cx="523.44" cy="392.01" fill="rgba(167, 4, 155, 1)"></circle><circle r="5" cx="560.14" cy="488.42" fill="rgba(167, 4, 155, 1)"></circle><circle r="5" cx="521.52" cy="674.98" fill="rgba(167, 4, 155, 1)"></circle><circle r="5" cx="692.79" cy="261.42" fill="rgba(167, 4, 155, 1)"></circle><circle r="5" cx="640.75" cy="344.13" fill="rgba(167, 4, 155, 1)"></circle><circle r="5" cx="648.42" cy="521.57" fill="rgba(167, 4, 155, 1)"></circle><circle r="5" cx="705.6" cy="649.22" fill="rgba(167, 4, 155, 1)"></circle><circle r="5" cx="847.75" cy="72.18" fill="rgba(167, 4, 155, 1)"></circle><circle r="5" cx="818.37" cy="249.56" fill="rgba(167, 4, 155, 1)"></circle><circle r="5" cx="816.15" cy="503.32" fill="rgba(167, 4, 155, 1)"></circle><circle r="5" cx="801.02" cy="644.87" fill="rgba(167, 4, 155, 1)"></circle><circle r="5" cx="969.75" cy="-93.98" fill="rgba(167, 4, 155, 1)"></circle><circle r="5" cx="952.18" cy="63.83" fill="rgba(167, 4, 155, 1)"></circle><circle r="5" cx="1000.87" cy="218.09" fill="rgba(167, 4, 155, 1)"></circle><circle r="5" cx="961.43" cy="340.48" fill="rgba(167, 4, 155, 1)"></circle><circle r="5" cx="987.5" cy="511.8" fill="rgba(167, 4, 155, 1)"></circle><circle r="5" cx="1006.92" cy="669.33" fill="rgba(167, 4, 155, 1)"></circle><circle r="5" cx="1158.17" cy="-93.96" fill="rgba(167, 4, 155, 1)"></circle><circle r="5" cx="1148.24" cy="39.85" fill="rgba(167, 4, 155, 1)"></circle><circle r="5" cx="1108.84" cy="227.05" fill="rgba(167, 4, 155, 1)"></circle><circle r="5" cx="1131.69" cy="358.35" fill="rgba(167, 4, 155, 1)"></circle><circle r="5" cx="1144.53" cy="561.51" fill="rgba(167, 4, 155, 1)"></circle><circle r="5" cx="1114.84" cy="648.49" fill="rgba(167, 4, 155, 1)"></circle><circle r="5" cx="1258.19" cy="-86.28" fill="rgba(167, 4, 155, 1)"></circle><circle r="5" cx="1297.32" cy="77.62" fill="rgba(167, 4, 155, 1)"></circle><circle r="5" cx="1251.02" cy="240.48" fill="rgba(167, 4, 155, 1)"></circle><circle r="5" cx="1293.97" cy="373.05" fill="rgba(167, 4, 155, 1)"></circle><circle r="5" cx="1253.44" cy="525.49" fill="rgba(167, 4, 155, 1)"></circle><circle r="5" cx="1309.83" cy="693.24" fill="rgba(167, 4, 155, 1)"></circle><circle r="5" cx="1389.57" cy="-82.19" fill="rgba(167, 4, 155, 1)"></circle><circle r="5" cx="1436.56" cy="71.75" fill="rgba(167, 4, 155, 1)"></circle><circle r="5" cx="1387.51" cy="381.26" fill="rgba(167, 4, 155, 1)"></circle><circle r="5" cx="1407.47" cy="558.55" fill="rgba(167, 4, 155, 1)"></circle><circle r="5" cx="1571.49" cy="-79.03" fill="rgba(167, 4, 155, 1)"></circle><circle r="5" cx="1601.9" cy="102.23" fill="rgba(167, 4, 155, 1)"></circle><circle r="5" cx="1562.48" cy="232.79" fill="rgba(167, 4, 155, 1)"></circle><circle r="5" cx="1604.12" cy="410.18" fill="rgba(167, 4, 155, 1)"></circle><circle r="5" cx="1555.91" cy="499.79" fill="rgba(167, 4, 155, 1)"></circle><circle r="5" cx="1586.88" cy="637.83" fill="rgba(167, 4, 155, 1)"></circle><path d="M-78.66 665.97L-78.66 665.97" stroke="hsl(298.79999999999995, 77.2%, 51.5%)" stroke-width="1.5"></path><path d="M-78.66 665.97L-101.86 540.02" stroke="hsl(298.79999999999995, 77.2%, 51.5%)" stroke-width="1.5"></path><path d="M-78.66 665.97L54.85 675.97" stroke="hsl(298.79999999999995, 77.2%, 51.5%)" stroke-width="1.5"></path><path d="M371.56 667.24L371.56 667.24" stroke="hsl(298.79999999999995, 77.2%, 51.5%)" stroke-width="1.5"></path><path d="M371.56 667.24L262.27 677.18" stroke="hsl(298.79999999999995, 77.2%, 51.5%)" stroke-width="1.5"></path><path d="M371.56 667.24L406.03 540.74" stroke="hsl(298.79999999999995, 77.2%, 51.5%)" stroke-width="1.5"></path><path d="M371.56 667.24L534.24 680.24" stroke="hsl(298.79999999999995, 77.2%, 51.5%)" stroke-width="1.5"></path><path d="M371.56 667.24L514.15 561.93" stroke="hsl(298.79999999999995, 77.2%, 51.5%)" stroke-width="1.5"></path><path d="M514.15 561.93L514.15 561.93" stroke="hsl(298.79999999999995, 77.2%, 51.5%)" stroke-width="1.5"></path><path d="M514.15 561.93L406.03 540.74" stroke="hsl(298.79999999999995, 77.2%, 51.5%)" stroke-width="1.5"></path><path d="M514.15 561.93L534.24 680.24" stroke="hsl(298.79999999999995, 77.2%, 51.5%)" stroke-width="1.5"></path><path d="M514.15 561.93L655.96 501.93" stroke="hsl(298.79999999999995, 77.2%, 51.5%)" stroke-width="1.5"></path><path d="M514.15 561.93L650.87 694.57" stroke="hsl(298.79999999999995, 77.2%, 51.5%)" stroke-width="1.5"></path><path d="M855.07 407.82L855.07 407.82" stroke="hsl(298.79999999999995, 77.2%, 51.5%)" stroke-width="1.5"></path><path d="M855.07 407.82L961.85 408.48" stroke="hsl(298.79999999999995, 77.2%, 51.5%)" stroke-width="1.5"></path><path d="M855.07 407.82L839.97 540.09" stroke="hsl(298.79999999999995, 77.2%, 51.5%)" stroke-width="1.5"></path><path d="M855.07 407.82L964.21 491.59" stroke="hsl(298.79999999999995, 77.2%, 51.5%)" stroke-width="1.5"></path><path d="M1116.68 550.88L1116.68 550.88" stroke="hsl(298.79999999999995, 77.2%, 51.5%)" stroke-width="1.5"></path><path d="M1116.68 550.88L964.21 491.59" stroke="hsl(298.79999999999995, 77.2%, 51.5%)" stroke-width="1.5"></path><path d="M1116.68 550.88L1295.55 514.98" stroke="hsl(298.79999999999995, 77.2%, 51.5%)" stroke-width="1.5"></path><path d="M1270.13 110.57L1270.13 110.57" stroke="hsl(298.79999999999995, 77.2%, 51.5%)" stroke-width="1.5"></path><path d="M1270.13 110.57L1298.33 189.08" stroke="hsl(298.79999999999995, 77.2%, 51.5%)" stroke-width="1.5"></path><path d="M1270.13 110.57L1152.64 68.52" stroke="hsl(298.79999999999995, 77.2%, 51.5%)" stroke-width="1.5"></path><path d="M1270.13 110.57L1429.97 92.81" stroke="hsl(298.79999999999995, 77.2%, 51.5%)" stroke-width="1.5"></path><path d="M1257.13 351.71L1257.13 351.71" stroke="hsl(298.79999999999995, 77.2%, 51.5%)" stroke-width="1.5"></path><path d="M1257.13 351.71L1131.88 341.41" stroke="hsl(298.79999999999995, 77.2%, 51.5%)" stroke-width="1.5"></path><path d="M1257.13 351.71L1295.55 514.98" stroke="hsl(298.79999999999995, 77.2%, 51.5%)" stroke-width="1.5"></path><path d="M1257.13 351.71L1298.33 189.08" stroke="hsl(298.79999999999995, 77.2%, 51.5%)" stroke-width="1.5"></path><path d="M1257.13 351.71L1434.35 344.12" stroke="hsl(298.79999999999995, 77.2%, 51.5%)" stroke-width="1.5"></path><path d="M1257.13 351.71L1413.75 200.3" stroke="hsl(298.79999999999995, 77.2%, 51.5%)" stroke-width="1.5"></path><path d="M1257.13 351.71L1100.32 187.61" stroke="hsl(298.79999999999995, 77.2%, 51.5%)" stroke-width="1.5"></path><path d="M1429.97 92.81L1429.97 92.81" stroke="hsl(298.79999999999995, 77.2%, 51.5%)" stroke-width="1.5"></path><path d="M1429.97 92.81L1413.75 200.3" stroke="hsl(298.79999999999995, 77.2%, 51.5%)" stroke-width="1.5"></path><path d="M1586.49 75.01L1586.49 75.01" stroke="hsl(298.79999999999995, 77.2%, 51.5%)" stroke-width="1.5"></path><path d="M1586.49 75.01L1603.24 229.8" stroke="hsl(298.79999999999995, 77.2%, 51.5%)" stroke-width="1.5"></path><path d="M1586.49 75.01L1429.97 92.81" stroke="hsl(298.79999999999995, 77.2%, 51.5%)" stroke-width="1.5"></path><path d="M1586.49 75.01L1599.55 -111.89" stroke="hsl(298.79999999999995, 77.2%, 51.5%)" stroke-width="1.5"></path><path d="M1586.49 75.01L1413.75 200.3" stroke="hsl(298.79999999999995, 77.2%, 51.5%)" stroke-width="1.5"></path><path d="M-101.86 540.02L-101.86 540.02" stroke="hsl(298.79999999999995, 77.2%, 51.5%)" stroke-width="1.5"></path><path d="M-101.86 540.02L38.07 506.11" stroke="hsl(298.79999999999995, 77.2%, 51.5%)" stroke-width="1.5"></path><path d="M-101.86 540.02L54.85 675.97" stroke="hsl(298.79999999999995, 77.2%, 51.5%)" stroke-width="1.5"></path><path d="M38.07 506.11L38.07 506.11" stroke="hsl(298.79999999999995, 77.2%, 51.5%)" stroke-width="1.5"></path><path d="M38.07 506.11L54.85 675.97" stroke="hsl(298.79999999999995, 77.2%, 51.5%)" stroke-width="1.5"></path><path d="M38.07 506.11L222.17 558.21" stroke="hsl(298.79999999999995, 77.2%, 51.5%)" stroke-width="1.5"></path><path d="M38.07 506.11L-78.66 665.97" stroke="hsl(298.79999999999995, 77.2%, 51.5%)" stroke-width="1.5"></path><path d="M38.07 506.11L262.27 677.18" stroke="hsl(298.79999999999995, 77.2%, 51.5%)" stroke-width="1.5"></path><path d="M54.85 675.97L54.85 675.97" stroke="hsl(298.79999999999995, 77.2%, 51.5%)" stroke-width="1.5"></path><path d="M54.85 675.97L222.17 558.21" stroke="hsl(298.79999999999995, 77.2%, 51.5%)" stroke-width="1.5"></path><path d="M54.85 675.97L262.27 677.18" stroke="hsl(298.79999999999995, 77.2%, 51.5%)" stroke-width="1.5"></path><path d="M222.17 558.21L222.17 558.21" stroke="hsl(298.79999999999995, 77.2%, 51.5%)" stroke-width="1.5"></path><path d="M222.17 558.21L262.27 677.18" stroke="hsl(298.79999999999995, 77.2%, 51.5%)" stroke-width="1.5"></path><path d="M222.17 558.21L406.03 540.74" stroke="hsl(298.79999999999995, 77.2%, 51.5%)" stroke-width="1.5"></path><path d="M222.17 558.21L371.56 667.24" stroke="hsl(298.79999999999995, 77.2%, 51.5%)" stroke-width="1.5"></path><path d="M222.17 558.21L514.15 561.93" stroke="hsl(298.79999999999995, 77.2%, 51.5%)" stroke-width="1.5"></path><path d="M262.27 677.18L262.27 677.18" stroke="hsl(298.79999999999995, 77.2%, 51.5%)" stroke-width="1.5"></path><path d="M406.03 540.74L406.03 540.74" stroke="hsl(298.79999999999995, 77.2%, 51.5%)" stroke-width="1.5"></path><path d="M406.03 540.74L534.24 680.24" stroke="hsl(298.79999999999995, 77.2%, 51.5%)" stroke-width="1.5"></path><path d="M406.03 540.74L262.27 677.18" stroke="hsl(298.79999999999995, 77.2%, 51.5%)" stroke-width="1.5"></path><path d="M406.03 540.74L655.96 501.93" stroke="hsl(298.79999999999995, 77.2%, 51.5%)" stroke-width="1.5"></path><path d="M534.24 680.24L534.24 680.24" stroke="hsl(298.79999999999995, 77.2%, 51.5%)" stroke-width="1.5"></path><path d="M534.24 680.24L650.87 694.57" stroke="hsl(298.79999999999995, 77.2%, 51.5%)" stroke-width="1.5"></path><path d="M534.24 680.24L655.96 501.93" stroke="hsl(298.79999999999995, 77.2%, 51.5%)" stroke-width="1.5"></path><path d="M702.57 397.34L702.57 397.34" stroke="hsl(298.79999999999995, 77.2%, 51.5%)" stroke-width="1.5"></path><path d="M702.57 397.34L655.96 501.93" stroke="hsl(298.79999999999995, 77.2%, 51.5%)" stroke-width="1.5"></path><path d="M702.57 397.34L855.07 407.82" stroke="hsl(298.79999999999995, 77.2%, 51.5%)" stroke-width="1.5"></path><path d="M655.96 501.93L655.96 501.93" stroke="hsl(298.79999999999995, 77.2%, 51.5%)" stroke-width="1.5"></path><path d="M655.96 501.93L839.97 540.09" stroke="hsl(298.79999999999995, 77.2%, 51.5%)" stroke-width="1.5"></path><path d="M650.87 694.57L650.87 694.57" stroke="hsl(298.79999999999995, 77.2%, 51.5%)" stroke-width="1.5"></path><path d="M650.87 694.57L655.96 501.93" stroke="hsl(298.79999999999995, 77.2%, 51.5%)" stroke-width="1.5"></path><path d="M839.97 540.09L839.97 540.09" stroke="hsl(298.79999999999995, 77.2%, 51.5%)" stroke-width="1.5"></path><path d="M839.97 540.09L964.21 491.59" stroke="hsl(298.79999999999995, 77.2%, 51.5%)" stroke-width="1.5"></path><path d="M859.35 695.9L859.35 695.9" stroke="hsl(298.79999999999995, 77.2%, 51.5%)" stroke-width="1.5"></path><path d="M859.35 695.9L971.79 690.37" stroke="hsl(298.79999999999995, 77.2%, 51.5%)" stroke-width="1.5"></path><path d="M859.35 695.9L839.97 540.09" stroke="hsl(298.79999999999995, 77.2%, 51.5%)" stroke-width="1.5"></path><path d="M859.35 695.9L650.87 694.57" stroke="hsl(298.79999999999995, 77.2%, 51.5%)" stroke-width="1.5"></path><path d="M859.35 695.9L964.21 491.59" stroke="hsl(298.79999999999995, 77.2%, 51.5%)" stroke-width="1.5"></path><path d="M961.85 408.48L961.85 408.48" stroke="hsl(298.79999999999995, 77.2%, 51.5%)" stroke-width="1.5"></path><path d="M961.85 408.48L964.21 491.59" stroke="hsl(298.79999999999995, 77.2%, 51.5%)" stroke-width="1.5"></path><path d="M961.85 408.48L839.97 540.09" stroke="hsl(298.79999999999995, 77.2%, 51.5%)" stroke-width="1.5"></path><path d="M961.85 408.48L1131.88 341.41" stroke="hsl(298.79999999999995, 77.2%, 51.5%)" stroke-width="1.5"></path><path d="M961.85 408.48L1116.68 550.88" stroke="hsl(298.79999999999995, 77.2%, 51.5%)" stroke-width="1.5"></path><path d="M961.85 408.48L702.57 397.34" stroke="hsl(298.79999999999995, 77.2%, 51.5%)" stroke-width="1.5"></path><path d="M964.21 491.59L964.21 491.59" stroke="hsl(298.79999999999995, 77.2%, 51.5%)" stroke-width="1.5"></path><path d="M964.21 491.59L971.79 690.37" stroke="hsl(298.79999999999995, 77.2%, 51.5%)" stroke-width="1.5"></path><path d="M964.21 491.59L1131.88 341.41" stroke="hsl(298.79999999999995, 77.2%, 51.5%)" stroke-width="1.5"></path><path d="M971.79 690.37L971.79 690.37" stroke="hsl(298.79999999999995, 77.2%, 51.5%)" stroke-width="1.5"></path><path d="M971.79 690.37L839.97 540.09" stroke="hsl(298.79999999999995, 77.2%, 51.5%)" stroke-width="1.5"></path><path d="M971.79 690.37L1116.68 550.88" stroke="hsl(298.79999999999995, 77.2%, 51.5%)" stroke-width="1.5"></path><path d="M971.79 690.37L961.85 408.48" stroke="hsl(298.79999999999995, 77.2%, 51.5%)" stroke-width="1.5"></path><path d="M971.79 690.37L1266.79 664.75" stroke="hsl(298.79999999999995, 77.2%, 51.5%)" stroke-width="1.5"></path><path d="M1154.73 -51.24L1154.73 -51.24" stroke="hsl(298.79999999999995, 77.2%, 51.5%)" stroke-width="1.5"></path><path d="M1154.73 -51.24L1254.72 -52.99" stroke="hsl(298.79999999999995, 77.2%, 51.5%)" stroke-width="1.5"></path><path d="M1154.73 -51.24L1152.64 68.52" stroke="hsl(298.79999999999995, 77.2%, 51.5%)" stroke-width="1.5"></path><path d="M1154.73 -51.24L1270.13 110.57" stroke="hsl(298.79999999999995, 77.2%, 51.5%)" stroke-width="1.5"></path><path d="M1154.73 -51.24L1100.32 187.61" stroke="hsl(298.79999999999995, 77.2%, 51.5%)" stroke-width="1.5"></path><path d="M1154.73 -51.24L1298.33 189.08" stroke="hsl(298.79999999999995, 77.2%, 51.5%)" stroke-width="1.5"></path><path d="M1152.64 68.52L1152.64 68.52" stroke="hsl(298.79999999999995, 77.2%, 51.5%)" stroke-width="1.5"></path><path d="M1152.64 68.52L1100.32 187.61" stroke="hsl(298.79999999999995, 77.2%, 51.5%)" stroke-width="1.5"></path><path d="M1152.64 68.52L1254.72 -52.99" stroke="hsl(298.79999999999995, 77.2%, 51.5%)" stroke-width="1.5"></path><path d="M1100.32 187.61L1100.32 187.61" stroke="hsl(298.79999999999995, 77.2%, 51.5%)" stroke-width="1.5"></path><path d="M1100.32 187.61L1131.88 341.41" stroke="hsl(298.79999999999995, 77.2%, 51.5%)" stroke-width="1.5"></path><path d="M1100.32 187.61L1270.13 110.57" stroke="hsl(298.79999999999995, 77.2%, 51.5%)" stroke-width="1.5"></path><path d="M1100.32 187.61L1298.33 189.08" stroke="hsl(298.79999999999995, 77.2%, 51.5%)" stroke-width="1.5"></path><path d="M1131.88 341.41L1131.88 341.41" stroke="hsl(298.79999999999995, 77.2%, 51.5%)" stroke-width="1.5"></path><path d="M1254.72 -52.99L1254.72 -52.99" stroke="hsl(298.79999999999995, 77.2%, 51.5%)" stroke-width="1.5"></path><path d="M1254.72 -52.99L1270.13 110.57" stroke="hsl(298.79999999999995, 77.2%, 51.5%)" stroke-width="1.5"></path><path d="M1298.33 189.08L1298.33 189.08" stroke="hsl(298.79999999999995, 77.2%, 51.5%)" stroke-width="1.5"></path><path d="M1298.33 189.08L1413.75 200.3" stroke="hsl(298.79999999999995, 77.2%, 51.5%)" stroke-width="1.5"></path><path d="M1298.33 189.08L1429.97 92.81" stroke="hsl(298.79999999999995, 77.2%, 51.5%)" stroke-width="1.5"></path><path d="M1295.55 514.98L1295.55 514.98" stroke="hsl(298.79999999999995, 77.2%, 51.5%)" stroke-width="1.5"></path><path d="M1295.55 514.98L1266.79 664.75" stroke="hsl(298.79999999999995, 77.2%, 51.5%)" stroke-width="1.5"></path><path d="M1266.79 664.75L1266.79 664.75" stroke="hsl(298.79999999999995, 77.2%, 51.5%)" stroke-width="1.5"></path><path d="M1266.79 664.75L1409.52 680.71" stroke="hsl(298.79999999999995, 77.2%, 51.5%)" stroke-width="1.5"></path><path d="M1266.79 664.75L1116.68 550.88" stroke="hsl(298.79999999999995, 77.2%, 51.5%)" stroke-width="1.5"></path><path d="M1266.79 664.75L1462.31 557.11" stroke="hsl(298.79999999999995, 77.2%, 51.5%)" stroke-width="1.5"></path><path d="M1445.72 -99.36L1445.72 -99.36" stroke="hsl(298.79999999999995, 77.2%, 51.5%)" stroke-width="1.5"></path><path d="M1445.72 -99.36L1599.55 -111.89" stroke="hsl(298.79999999999995, 77.2%, 51.5%)" stroke-width="1.5"></path><path d="M1445.72 -99.36L1429.97 92.81" stroke="hsl(298.79999999999995, 77.2%, 51.5%)" stroke-width="1.5"></path><path d="M1445.72 -99.36L1254.72 -52.99" stroke="hsl(298.79999999999995, 77.2%, 51.5%)" stroke-width="1.5"></path><path d="M1445.72 -99.36L1586.49 75.01" stroke="hsl(298.79999999999995, 77.2%, 51.5%)" stroke-width="1.5"></path><path d="M1445.72 -99.36L1270.13 110.57" stroke="hsl(298.79999999999995, 77.2%, 51.5%)" stroke-width="1.5"></path><path d="M1445.72 -99.36L1154.73 -51.24" stroke="hsl(298.79999999999995, 77.2%, 51.5%)" stroke-width="1.5"></path><path d="M1413.75 200.3L1413.75 200.3" stroke="hsl(298.79999999999995, 77.2%, 51.5%)" stroke-width="1.5"></path><path d="M1413.75 200.3L1434.35 344.12" stroke="hsl(298.79999999999995, 77.2%, 51.5%)" stroke-width="1.5"></path><path d="M1413.75 200.3L1270.13 110.57" stroke="hsl(298.79999999999995, 77.2%, 51.5%)" stroke-width="1.5"></path><path d="M1434.35 344.12L1434.35 344.12" stroke="hsl(298.79999999999995, 77.2%, 51.5%)" stroke-width="1.5"></path><path d="M1434.35 344.12L1585.42 390.8" stroke="hsl(298.79999999999995, 77.2%, 51.5%)" stroke-width="1.5"></path><path d="M1434.35 344.12L1603.24 229.8" stroke="hsl(298.79999999999995, 77.2%, 51.5%)" stroke-width="1.5"></path><path d="M1462.31 557.11L1462.31 557.11" stroke="hsl(298.79999999999995, 77.2%, 51.5%)" stroke-width="1.5"></path><path d="M1462.31 557.11L1409.52 680.71" stroke="hsl(298.79999999999995, 77.2%, 51.5%)" stroke-width="1.5"></path><path d="M1462.31 557.11L1611.97 550.36" stroke="hsl(298.79999999999995, 77.2%, 51.5%)" stroke-width="1.5"></path><path d="M1462.31 557.11L1295.55 514.98" stroke="hsl(298.79999999999995, 77.2%, 51.5%)" stroke-width="1.5"></path><path d="M1409.52 680.71L1409.52 680.71" stroke="hsl(298.79999999999995, 77.2%, 51.5%)" stroke-width="1.5"></path><path d="M1409.52 680.71L1569.75 705.03" stroke="hsl(298.79999999999995, 77.2%, 51.5%)" stroke-width="1.5"></path><path d="M1409.52 680.71L1295.55 514.98" stroke="hsl(298.79999999999995, 77.2%, 51.5%)" stroke-width="1.5"></path><path d="M1409.52 680.71L1611.97 550.36" stroke="hsl(298.79999999999995, 77.2%, 51.5%)" stroke-width="1.5"></path><path d="M1599.55 -111.89L1599.55 -111.89" stroke="hsl(298.79999999999995, 77.2%, 51.5%)" stroke-width="1.5"></path><path d="M1599.55 -111.89L1429.97 92.81" stroke="hsl(298.79999999999995, 77.2%, 51.5%)" stroke-width="1.5"></path><path d="M1599.55 -111.89L1603.24 229.8" stroke="hsl(298.79999999999995, 77.2%, 51.5%)" stroke-width="1.5"></path><path d="M1603.24 229.8L1603.24 229.8" stroke="hsl(298.79999999999995, 77.2%, 51.5%)" stroke-width="1.5"></path><path d="M1603.24 229.8L1585.42 390.8" stroke="hsl(298.79999999999995, 77.2%, 51.5%)" stroke-width="1.5"></path><path d="M1603.24 229.8L1413.75 200.3" stroke="hsl(298.79999999999995, 77.2%, 51.5%)" stroke-width="1.5"></path><path d="M1585.42 390.8L1585.42 390.8" stroke="hsl(298.79999999999995, 77.2%, 51.5%)" stroke-width="1.5"></path><path d="M1585.42 390.8L1611.97 550.36" stroke="hsl(298.79999999999995, 77.2%, 51.5%)" stroke-width="1.5"></path><path d="M1611.97 550.36L1611.97 550.36" stroke="hsl(298.79999999999995, 77.2%, 51.5%)" stroke-width="1.5"></path><path d="M1611.97 550.36L1569.75 705.03" stroke="hsl(298.79999999999995, 77.2%, 51.5%)" stroke-width="1.5"></path><path d="M1569.75 705.03L1569.75 705.03" stroke="hsl(298.79999999999995, 77.2%, 51.5%)" stroke-width="1.5"></path><path d="M1569.75 705.03L1462.31 557.11" stroke="hsl(298.79999999999995, 77.2%, 51.5%)" stroke-width="1.5"></path><circle r="25" cx="-78.66" cy="665.97" fill="url(#SvgjsRadialGradient1607)"></circle><circle r="25" cx="371.56" cy="667.24" fill="url(#SvgjsRadialGradient1607)"></circle><circle r="25" cx="514.15" cy="561.93" fill="url(#SvgjsRadialGradient1607)"></circle><circle r="25" cx="855.07" cy="407.82" fill="url(#SvgjsRadialGradient1607)"></circle><circle r="25" cx="1116.68" cy="550.88" fill="url(#SvgjsRadialGradient1607)"></circle><circle r="25" cx="1270.13" cy="110.57" fill="url(#SvgjsRadialGradient1607)"></circle><circle r="25" cx="1257.13" cy="351.71" fill="url(#SvgjsRadialGradient1607)"></circle><circle r="25" cx="1429.97" cy="92.81" fill="url(#SvgjsRadialGradient1607)"></circle><circle r="25" cx="1586.49" cy="75.01" fill="url(#SvgjsRadialGradient1607)"></circle><circle r="5" cx="-101.86" cy="540.02" fill="#d88bd9"></circle><circle r="5" cx="38.07" cy="506.11" fill="#d88bd9"></circle><circle r="5" cx="54.85" cy="675.97" fill="#d88bd9"></circle><circle r="5" cx="222.17" cy="558.21" fill="#d88bd9"></circle><circle r="5" cx="262.27" cy="677.18" fill="#d88bd9"></circle><circle r="5" cx="406.03" cy="540.74" fill="#d88bd9"></circle><circle r="5" cx="534.24" cy="680.24" fill="#d88bd9"></circle><circle r="5" cx="702.57" cy="397.34" fill="#d88bd9"></circle><circle r="5" cx="655.96" cy="501.93" fill="#d88bd9"></circle><circle r="5" cx="650.87" cy="694.57" fill="#d88bd9"></circle><circle r="5" cx="839.97" cy="540.09" fill="#d88bd9"></circle><circle r="5" cx="859.35" cy="695.9" fill="#d88bd9"></circle><circle r="5" cx="961.85" cy="408.48" fill="#d88bd9"></circle><circle r="5" cx="964.21" cy="491.59" fill="#d88bd9"></circle><circle r="5" cx="971.79" cy="690.37" fill="#d88bd9"></circle><circle r="5" cx="1154.73" cy="-51.24" fill="#d88bd9"></circle><circle r="5" cx="1152.64" cy="68.52" fill="#d88bd9"></circle><circle r="5" cx="1100.32" cy="187.61" fill="#d88bd9"></circle><circle r="5" cx="1131.88" cy="341.41" fill="#d88bd9"></circle><circle r="5" cx="1254.72" cy="-52.99" fill="#d88bd9"></circle><circle r="5" cx="1298.33" cy="189.08" fill="#d88bd9"></circle><circle r="5" cx="1295.55" cy="514.98" fill="#d88bd9"></circle><circle r="5" cx="1266.79" cy="664.75" fill="#d88bd9"></circle><circle r="5" cx="1445.72" cy="-99.36" fill="#d88bd9"></circle><circle r="5" cx="1413.75" cy="200.3" fill="#d88bd9"></circle><circle r="5" cx="1434.35" cy="344.12" fill="#d88bd9"></circle><circle r="5" cx="1462.31" cy="557.11" fill="#d88bd9"></circle><circle r="5" cx="1409.52" cy="680.71" fill="#d88bd9"></circle><circle r="5" cx="1599.55" cy="-111.89" fill="#d88bd9"></circle><circle r="5" cx="1603.24" cy="229.8" fill="#d88bd9"></circle><circle r="5" cx="1585.42" cy="390.8" fill="#d88bd9"></circle><circle r="5" cx="1611.97" cy="550.36" fill="#d88bd9"></circle><circle r="5" cx="1569.75" cy="705.03" fill="#d88bd9"></circle></g><defs><mask id="SvgjsMask1605"><rect width="1440" height="560" fill="#ffffff"></rect></mask><linearGradient x1="15.28%" y1="-39.29%" x2="84.72%" y2="139.29%" gradientUnits="userSpaceOnUse" id="SvgjsLinearGradient1606"><stop stop-color="rgba(30, 0, 43, 1)" offset="0"></stop><stop stop-color="rgba(0, 0, 0, 1)" offset="1"></stop></linearGradient><radialGradient id="SvgjsRadialGradient1607"><stop stop-color="#ffffff" offset="0.1"></stop><stop stop-color="rgba(176, 23, 179, 1)" offset="0.2"></stop><stop stop-color="rgba(176, 23, 179, 0)" offset="1"></stop></radialGradient></defs></svg>