<svg xmlns="http://www.w3.org/2000/svg" version="1.1" xmlns:xlink="http://www.w3.org/1999/xlink" xmlns:svgjs="http://svgjs.com/svgjs" width="1440" height="560" preserveAspectRatio="none" viewBox="0 0 1440 560"><g mask="url(&quot;#SvgjsMask1001&quot;)" fill="none"><rect width="1440" height="560" x="0" y="0" fill="rgba(30, 35, 38, 1)"></rect><path d="M55.16 204.22L120.11 241.72L120.11 316.72L55.16 354.22L-9.79 316.72L-9.79 241.72zM185.07 429.22L250.02 466.72L250.02 541.72L185.07 579.22L120.11 541.72L120.11 466.72zM250.02 541.72L314.98 579.22L314.98 654.22L250.02 691.72L185.07 654.22L185.07 579.22zM314.98 -20.78L379.93 16.72L379.93 91.72L314.98 129.22L250.02 91.72L250.02 16.72zM379.93 91.72L444.88 129.22L444.88 204.22L379.93 241.72L314.98 204.22L314.98 129.22zM379.93 316.72L444.88 354.22L444.88 429.22L379.93 466.72L314.98 429.22L314.98 354.22zM379.93 541.72L444.88 579.22L444.88 654.22L379.93 691.72L314.98 654.22L314.98 579.22zM444.88 -20.78L509.84 16.72L509.84 91.72L444.88 129.22L379.93 91.72L379.93 16.72zM509.84 91.72L574.79 129.22L574.79 204.22L509.84 241.72L444.88 204.22L444.88 129.22zM444.88 429.22L509.84 466.72L509.84 541.72L444.88 579.22L379.93 541.72L379.93 466.72zM509.84 541.72L574.79 579.22L574.79 654.22L509.84 691.72L444.88 654.22L444.88 579.22zM834.6 429.22L899.56 466.72L899.56 541.72L834.6 579.22L769.65 541.72L769.65 466.72zM964.51 204.22L1029.47 241.72L1029.47 316.72L964.51 354.22L899.56 316.72L899.56 241.72zM1029.47 541.72L1094.42 579.22L1094.42 654.22L1029.47 691.72L964.51 654.22L964.51 579.22zM1094.42 204.22L1159.37 241.72L1159.37 316.72L1094.42 354.22L1029.47 316.72L1029.47 241.72zM1224.33 204.22L1289.28 241.72L1289.28 316.72L1224.33 354.22L1159.37 316.72L1159.37 241.72zM1224.33 429.22L1289.28 466.72L1289.28 541.72L1224.33 579.22L1159.37 541.72L1159.37 466.72zM1419.19 316.72L1484.14 354.22L1484.14 429.22L1419.19 466.72L1354.24 429.22L1354.24 354.22zM1549.1 91.72L1614.05 129.22L1614.05 204.22L1549.1 241.72L1484.14 204.22L1484.14 129.22zM1484.14 429.22L1549.1 466.72L1549.1 541.72L1484.14 579.22L1419.19 541.72L1419.19 466.72z" stroke="rgba(55, 55, 55, 1)" stroke-width="2"></path><path d="M47.66 204.22 a7.5 7.5 0 1 0 15 0 a7.5 7.5 0 1 0 -15 0zM112.61 241.72 a7.5 7.5 0 1 0 15 0 a7.5 7.5 0 1 0 -15 0zM112.61 316.72 a7.5 7.5 0 1 0 15 0 a7.5 7.5 0 1 0 -15 0zM47.66 354.22 a7.5 7.5 0 1 0 15 0 a7.5 7.5 0 1 0 -15 0zM-17.29 316.72 a7.5 7.5 0 1 0 15 0 a7.5 7.5 0 1 0 -15 0zM-17.29 241.72 a7.5 7.5 0 1 0 15 0 a7.5 7.5 0 1 0 -15 0zM177.57 429.22 a7.5 7.5 0 1 0 15 0 a7.5 7.5 0 1 0 -15 0zM242.52 466.72 a7.5 7.5 0 1 0 15 0 a7.5 7.5 0 1 0 -15 0zM242.52 541.72 a7.5 7.5 0 1 0 15 0 a7.5 7.5 0 1 0 -15 0zM177.57 579.22 a7.5 7.5 0 1 0 15 0 a7.5 7.5 0 1 0 -15 0zM112.61 541.72 a7.5 7.5 0 1 0 15 0 a7.5 7.5 0 1 0 -15 0zM112.61 466.72 a7.5 7.5 0 1 0 15 0 a7.5 7.5 0 1 0 -15 0zM307.48 579.22 a7.5 7.5 0 1 0 15 0 a7.5 7.5 0 1 0 -15 0zM307.48 654.22 a7.5 7.5 0 1 0 15 0 a7.5 7.5 0 1 0 -15 0zM242.52 691.72 a7.5 7.5 0 1 0 15 0 a7.5 7.5 0 1 0 -15 0zM177.57 654.22 a7.5 7.5 0 1 0 15 0 a7.5 7.5 0 1 0 -15 0zM307.48 -20.78 a7.5 7.5 0 1 0 15 0 a7.5 7.5 0 1 0 -15 0zM372.43 16.72 a7.5 7.5 0 1 0 15 0 a7.5 7.5 0 1 0 -15 0zM372.43 91.72 a7.5 7.5 0 1 0 15 0 a7.5 7.5 0 1 0 -15 0zM307.48 129.22 a7.5 7.5 0 1 0 15 0 a7.5 7.5 0 1 0 -15 0zM242.52 91.72 a7.5 7.5 0 1 0 15 0 a7.5 7.5 0 1 0 -15 0zM242.52 16.72 a7.5 7.5 0 1 0 15 0 a7.5 7.5 0 1 0 -15 0zM437.38 129.22 a7.5 7.5 0 1 0 15 0 a7.5 7.5 0 1 0 -15 0zM437.38 204.22 a7.5 7.5 0 1 0 15 0 a7.5 7.5 0 1 0 -15 0zM372.43 241.72 a7.5 7.5 0 1 0 15 0 a7.5 7.5 0 1 0 -15 0zM307.48 204.22 a7.5 7.5 0 1 0 15 0 a7.5 7.5 0 1 0 -15 0zM372.43 316.72 a7.5 7.5 0 1 0 15 0 a7.5 7.5 0 1 0 -15 0zM437.38 354.22 a7.5 7.5 0 1 0 15 0 a7.5 7.5 0 1 0 -15 0zM437.38 429.22 a7.5 7.5 0 1 0 15 0 a7.5 7.5 0 1 0 -15 0zM372.43 466.72 a7.5 7.5 0 1 0 15 0 a7.5 7.5 0 1 0 -15 0zM307.48 429.22 a7.5 7.5 0 1 0 15 0 a7.5 7.5 0 1 0 -15 0zM307.48 354.22 a7.5 7.5 0 1 0 15 0 a7.5 7.5 0 1 0 -15 0zM372.43 541.72 a7.5 7.5 0 1 0 15 0 a7.5 7.5 0 1 0 -15 0zM437.38 579.22 a7.5 7.5 0 1 0 15 0 a7.5 7.5 0 1 0 -15 0zM437.38 654.22 a7.5 7.5 0 1 0 15 0 a7.5 7.5 0 1 0 -15 0zM372.43 691.72 a7.5 7.5 0 1 0 15 0 a7.5 7.5 0 1 0 -15 0zM437.38 -20.78 a7.5 7.5 0 1 0 15 0 a7.5 7.5 0 1 0 -15 0zM502.34 16.72 a7.5 7.5 0 1 0 15 0 a7.5 7.5 0 1 0 -15 0zM502.34 91.72 a7.5 7.5 0 1 0 15 0 a7.5 7.5 0 1 0 -15 0zM567.29 129.22 a7.5 7.5 0 1 0 15 0 a7.5 7.5 0 1 0 -15 0zM567.29 204.22 a7.5 7.5 0 1 0 15 0 a7.5 7.5 0 1 0 -15 0zM502.34 241.72 a7.5 7.5 0 1 0 15 0 a7.5 7.5 0 1 0 -15 0zM502.34 466.72 a7.5 7.5 0 1 0 15 0 a7.5 7.5 0 1 0 -15 0zM502.34 541.72 a7.5 7.5 0 1 0 15 0 a7.5 7.5 0 1 0 -15 0zM567.29 579.22 a7.5 7.5 0 1 0 15 0 a7.5 7.5 0 1 0 -15 0zM567.29 654.22 a7.5 7.5 0 1 0 15 0 a7.5 7.5 0 1 0 -15 0zM502.34 691.72 a7.5 7.5 0 1 0 15 0 a7.5 7.5 0 1 0 -15 0zM827.1 429.22 a7.5 7.5 0 1 0 15 0 a7.5 7.5 0 1 0 -15 0zM892.06 466.72 a7.5 7.5 0 1 0 15 0 a7.5 7.5 0 1 0 -15 0zM892.06 541.72 a7.5 7.5 0 1 0 15 0 a7.5 7.5 0 1 0 -15 0zM827.1 579.22 a7.5 7.5 0 1 0 15 0 a7.5 7.5 0 1 0 -15 0zM762.15 541.72 a7.5 7.5 0 1 0 15 0 a7.5 7.5 0 1 0 -15 0zM762.15 466.72 a7.5 7.5 0 1 0 15 0 a7.5 7.5 0 1 0 -15 0zM957.01 204.22 a7.5 7.5 0 1 0 15 0 a7.5 7.5 0 1 0 -15 0zM1021.97 241.72 a7.5 7.5 0 1 0 15 0 a7.5 7.5 0 1 0 -15 0zM1021.97 316.72 a7.5 7.5 0 1 0 15 0 a7.5 7.5 0 1 0 -15 0zM957.01 354.22 a7.5 7.5 0 1 0 15 0 a7.5 7.5 0 1 0 -15 0zM892.06 316.72 a7.5 7.5 0 1 0 15 0 a7.5 7.5 0 1 0 -15 0zM892.06 241.72 a7.5 7.5 0 1 0 15 0 a7.5 7.5 0 1 0 -15 0zM1021.97 541.72 a7.5 7.5 0 1 0 15 0 a7.5 7.5 0 1 0 -15 0zM1086.92 579.22 a7.5 7.5 0 1 0 15 0 a7.5 7.5 0 1 0 -15 0zM1086.92 654.22 a7.5 7.5 0 1 0 15 0 a7.5 7.5 0 1 0 -15 0zM1021.97 691.72 a7.5 7.5 0 1 0 15 0 a7.5 7.5 0 1 0 -15 0zM957.01 654.22 a7.5 7.5 0 1 0 15 0 a7.5 7.5 0 1 0 -15 0zM957.01 579.22 a7.5 7.5 0 1 0 15 0 a7.5 7.5 0 1 0 -15 0zM1086.92 204.22 a7.5 7.5 0 1 0 15 0 a7.5 7.5 0 1 0 -15 0zM1151.87 241.72 a7.5 7.5 0 1 0 15 0 a7.5 7.5 0 1 0 -15 0zM1151.87 316.72 a7.5 7.5 0 1 0 15 0 a7.5 7.5 0 1 0 -15 0zM1086.92 354.22 a7.5 7.5 0 1 0 15 0 a7.5 7.5 0 1 0 -15 0zM1216.83 204.22 a7.5 7.5 0 1 0 15 0 a7.5 7.5 0 1 0 -15 0zM1281.78 241.72 a7.5 7.5 0 1 0 15 0 a7.5 7.5 0 1 0 -15 0zM1281.78 316.72 a7.5 7.5 0 1 0 15 0 a7.5 7.5 0 1 0 -15 0zM1216.83 354.22 a7.5 7.5 0 1 0 15 0 a7.5 7.5 0 1 0 -15 0zM1216.83 429.22 a7.5 7.5 0 1 0 15 0 a7.5 7.5 0 1 0 -15 0zM1281.78 466.72 a7.5 7.5 0 1 0 15 0 a7.5 7.5 0 1 0 -15 0zM1281.78 541.72 a7.5 7.5 0 1 0 15 0 a7.5 7.5 0 1 0 -15 0zM1216.83 579.22 a7.5 7.5 0 1 0 15 0 a7.5 7.5 0 1 0 -15 0zM1151.87 541.72 a7.5 7.5 0 1 0 15 0 a7.5 7.5 0 1 0 -15 0zM1151.87 466.72 a7.5 7.5 0 1 0 15 0 a7.5 7.5 0 1 0 -15 0zM1411.69 316.72 a7.5 7.5 0 1 0 15 0 a7.5 7.5 0 1 0 -15 0zM1476.64 354.22 a7.5 7.5 0 1 0 15 0 a7.5 7.5 0 1 0 -15 0zM1476.64 429.22 a7.5 7.5 0 1 0 15 0 a7.5 7.5 0 1 0 -15 0zM1411.69 466.72 a7.5 7.5 0 1 0 15 0 a7.5 7.5 0 1 0 -15 0zM1346.74 429.22 a7.5 7.5 0 1 0 15 0 a7.5 7.5 0 1 0 -15 0zM1346.74 354.22 a7.5 7.5 0 1 0 15 0 a7.5 7.5 0 1 0 -15 0zM1541.6 91.72 a7.5 7.5 0 1 0 15 0 a7.5 7.5 0 1 0 -15 0zM1606.55 129.22 a7.5 7.5 0 1 0 15 0 a7.5 7.5 0 1 0 -15 0zM1606.55 204.22 a7.5 7.5 0 1 0 15 0 a7.5 7.5 0 1 0 -15 0zM1541.6 241.72 a7.5 7.5 0 1 0 15 0 a7.5 7.5 0 1 0 -15 0zM1476.64 204.22 a7.5 7.5 0 1 0 15 0 a7.5 7.5 0 1 0 -15 0zM1476.64 129.22 a7.5 7.5 0 1 0 15 0 a7.5 7.5 0 1 0 -15 0zM1541.6 466.72 a7.5 7.5 0 1 0 15 0 a7.5 7.5 0 1 0 -15 0zM1541.6 541.72 a7.5 7.5 0 1 0 15 0 a7.5 7.5 0 1 0 -15 0zM1476.64 579.22 a7.5 7.5 0 1 0 15 0 a7.5 7.5 0 1 0 -15 0zM1411.69 541.72 a7.5 7.5 0 1 0 15 0 a7.5 7.5 0 1 0 -15 0z" fill="rgba(55, 55, 55, 1)"></path><path d="M7.68 -41.98L180.89 58.02L180.89 258.02L7.68 358.02L-165.53 258.02L-165.53 58.02zM354.1 -41.98L527.31 58.02L527.31 258.02L354.1 358.02L180.89 258.02L180.89 58.02zM354.1 558.02L527.31 658.02L527.31 858.02L354.1 958.02L180.89 858.02L180.89 658.02zM873.73 258.02L1046.94 358.02L1046.94 558.02L873.73 658.02L700.52 558.02L700.52 358.02zM700.52 558.02L873.73 658.02L873.73 858.02L700.52 958.02L527.31 858.02L527.31 658.02z" stroke="rgba(53, 53, 53, 0.93)" stroke-width="2"></path></g><defs><mask id="SvgjsMask1001"><rect width="1440" height="560" fill="#ffffff"></rect></mask></defs></svg>